<?xml version="1.0" encoding="UTF-8" standalone="no"?>
<!DOCTYPE svg PUBLIC "-//W3C//DTD SVG 1.1//EN" "http://www.w3.org/Graphics/SVG/1.1/DTD/svg11.dtd">
<svg width="100%" height="100%" viewBox="0 0 48 48" version="1.1" xmlns="http://www.w3.org/2000/svg" xmlns:xlink="http://www.w3.org/1999/xlink" xml:space="preserve" xmlns:serif="http://www.serif.com/" style="fill-rule:evenodd;clip-rule:evenodd;stroke-linejoin:round;stroke-miterlimit:2;">
    <g transform="matrix(1,0,0,1,40.8343,18.5101)">
        <path d="M0,-11.345C-4.985,-16.33 -11.877,-18.921 -18.921,-18.457L-18.773,-16.225C-12.385,-16.652 -6.111,-14.293 -1.582,-9.764C2.948,-5.234 5.303,1.032 4.88,7.429L7.112,7.576C7.578,0.537 4.985,-6.36 0,-11.345" style="fill:rgb(141,222,241);fill-rule:nonzero;"/>
    </g>
    <g transform="matrix(1,0,0,1,21.9139,25.7547)">
        <path d="M0,-18.447L0.147,-16.215C4.587,-16.509 8.927,-14.876 12.066,-11.735C15.206,-8.595 16.839,-4.251 16.546,0.185L18.778,0.331C19.114,-4.747 17.244,-9.722 13.648,-13.317C10.053,-16.913 5.081,-18.778 0,-18.447" style="fill:rgb(141,222,241);fill-rule:nonzero;"/>
    </g>
    <g transform="matrix(1,0,0,1,21.9134,25.8826)">
        <path d="M0,-11.321L0.147,-9.089C2.619,-9.25 5.043,-8.342 6.794,-6.592C8.544,-4.841 9.455,-2.419 9.292,0.053L11.525,0.2C11.729,-2.915 10.582,-5.967 8.376,-8.173C6.169,-10.38 3.116,-11.521 0,-11.321" style="fill:rgb(141,222,241);fill-rule:nonzero;"/>
    </g>
    <g transform="matrix(1,0,0,1,14.4369,40.7179)">
        <path d="M0,-17.877L3.009,-14.868L-7.156,-4.703L-2.452,0L7.713,-10.164L10.722,-7.154L10.722,-17.877L0,-17.877Z" style="fill:rgb(248,181,91);fill-rule:nonzero;"/>
    </g>
    <g transform="matrix(1,0,0,1,25.8353,25.5064)">
        <path d="M0,13.395C-2.201,15.595 -5.769,15.595 -7.969,13.395L-17.245,4.12C-19.457,1.908 -19.229,-1.45 -16.737,-3.342L-23.867,-10.471C-24.333,-9.722 -24.706,-8.916 -24.945,-8.059C-27.208,0.035 -25.157,9.082 -18.791,15.448C-12.424,21.814 -3.378,23.866 4.715,21.604C5.572,21.365 6.379,20.992 7.129,20.525L0,13.395Z" style="fill:rgb(118,154,255);fill-rule:nonzero;"/>
    </g>
    <g transform="matrix(1,0,0,1,6.56431,21.283)">
        <path d="M0,-8.031C-0.88,-8.912 -2.308,-8.912 -3.188,-8.031C-3.728,-7.492 -4.195,-6.89 -4.596,-6.248L2.534,0.881L4.128,-0.714C5.009,-1.594 5.009,-3.022 4.128,-3.903L0,-8.031Z" style="fill:rgb(85,109,211);fill-rule:nonzero;"/>
    </g>
    <g transform="matrix(1,0,0,1,34.7474,41.0226)">
        <path d="M0,0.412L-4.128,-3.716C-5.009,-4.597 -6.437,-4.597 -7.317,-3.716L-8.912,-2.121L-1.783,5.009C-1.141,4.608 -0.539,4.141 0,3.601C0.881,2.721 0.881,1.293 0,0.412" style="fill:rgb(85,109,211);fill-rule:nonzero;"/>
    </g>
</svg>
