<?xml version="1.0" encoding="UTF-8" standalone="no"?>
<!DOCTYPE svg PUBLIC "-//W3C//DTD SVG 1.1//EN" "http://www.w3.org/Graphics/SVG/1.1/DTD/svg11.dtd">
<svg width="100%" height="100%" viewBox="0 0 49 41" version="1.1" xmlns="http://www.w3.org/2000/svg" xmlns:xlink="http://www.w3.org/1999/xlink" xml:space="preserve" xmlns:serif="http://www.serif.com/" style="fill-rule:evenodd;clip-rule:evenodd;stroke-linejoin:round;stroke-miterlimit:2;">
    <g transform="matrix(1,0,0,1,24.0001,0)">
        <path d="M0,39.375L0,37.5C7.456,37.5 14.157,32.815 16.724,25.827L16.929,14.139C14.526,6.797 7.743,1.875 0,1.875C-7.745,1.875 -14.531,6.801 -16.932,14.146L-16.932,17.125L-18.807,17.125L-18.807,13.854L-18.763,13.716C-16.153,5.512 -8.614,0 0,0C8.614,0 16.154,5.512 18.763,13.716L18.81,13.862L18.593,26.17L18.541,26.315C15.748,34.127 8.297,39.375 0,39.375" style="fill:rgb(141,222,241);fill-rule:nonzero;"/>
    </g>
    <g transform="matrix(1,0,0,1,6.131,26)">
        <path d="M0,-12L-0.385,-12C-3.513,-12 -6.123,-9.499 -6.131,-6.372L-6.131,-6.313C-6.131,-6.274 -6.131,-6.236 -6.13,-6.197C-6.114,-2.751 -3.235,0 0.211,0C-0.494,-1.974 -0.881,-4.098 -0.881,-6.313C-0.881,-8.296 -0.571,-10.206 0,-12" style="fill:rgb(118,154,255);fill-rule:nonzero;"/>
    </g>
    <g transform="matrix(1,0,0,1,48.0001,20.372)">
        <path d="M0,-0.744C-0.008,-3.871 -2.618,-6.372 -5.746,-6.372L-6.131,-6.372C-5.56,-4.578 -5.25,-2.668 -5.25,-0.685C-5.25,1.53 -5.637,3.654 -6.342,5.628C-2.896,5.628 -0.017,2.877 0,-0.569L0,-0.685L0,-0.744Z" style="fill:rgb(118,154,255);fill-rule:nonzero;"/>
    </g>
    <g transform="matrix(1,0,0,1,9.7506,20.3126)">
        <path d="M0,-0.626C0,-1.658 0.084,-2.671 0.245,-3.658C0.472,-5.045 -0.561,-6.313 -1.965,-6.313L-3.62,-6.313C-4.19,-4.519 -4.5,-2.608 -4.5,-0.626C-4.5,1.59 -4.113,3.714 -3.408,5.687L-1.854,5.687C-0.456,5.687 0.635,4.42 0.362,3.049C0.125,1.861 0,0.633 0,-0.626" style="fill:rgb(85,109,211);fill-rule:nonzero;"/>
    </g>
    <g transform="matrix(1,0,0,1,41.8693,26)">
        <path d="M0,-12L-1.654,-12C-3.059,-12 -4.092,-10.732 -3.865,-9.346C-3.704,-8.358 -3.62,-7.346 -3.62,-6.313C-3.62,-5.055 -3.744,-3.826 -3.981,-2.639C-4.254,-1.268 -3.164,0 -1.766,0L-0.211,0C0.494,-1.974 0.881,-4.098 0.881,-6.313C0.881,-8.296 0.571,-10.206 0,-12" style="fill:rgb(85,109,211);fill-rule:nonzero;"/>
    </g>
    <g transform="matrix(1,0,0,1,26.3253,40.6875)">
        <path d="M0,-4.5L-4.65,-4.5C-5.846,-4.5 -6.825,-3.521 -6.825,-2.325L-6.825,-2.175C-6.825,-0.979 -5.846,0 -4.65,0L0,0C1.196,0 2.175,-0.979 2.175,-2.175L2.175,-2.325C2.175,-3.521 1.196,-4.5 0,-4.5" style="fill:rgb(85,109,211);fill-rule:nonzero;"/>
    </g>
    <g transform="matrix(1,0,0,1,31.9547,15.4506)">
        <path d="M0,12.316L-4.363,12.316L-7.955,15.908L-11.546,12.316L-15.909,12.316L-15.909,-3.592L0,-3.592L0,12.316Z" style="fill:rgb(118,154,255);fill-rule:nonzero;"/>
    </g>
    <g transform="matrix(1,0,0,1,27.2809,16.5106)">
        <path d="M0,10.506L-3.281,13.787L-6.562,10.506L-9.424,10.506L-3.281,4.362L2.863,10.506L0,10.506ZM-9.424,-3.902L2.863,-3.902L-3.281,2.241L-9.424,-3.902ZM-4.341,3.302L-10.485,9.445L-10.485,-2.842L-4.341,3.302ZM-2.22,3.302L3.924,-2.842L3.924,9.445L-2.22,3.302ZM-11.985,-5.402L-11.985,12.006L-7.183,12.006L-3.281,15.908L0.621,12.006L5.424,12.006L5.424,-5.402L-11.985,-5.402Z" style="fill:rgb(85,109,211);fill-rule:nonzero;"/>
    </g>
</svg>
