<?xml version="1.0" encoding="UTF-8" standalone="no"?>
<!DOCTYPE svg PUBLIC "-//W3C//DTD SVG 1.1//EN" "http://www.w3.org/Graphics/SVG/1.1/DTD/svg11.dtd">
<svg width="100%" height="100%" viewBox="0 0 49 48" version="1.1" xmlns="http://www.w3.org/2000/svg" xmlns:xlink="http://www.w3.org/1999/xlink" xml:space="preserve" xmlns:serif="http://www.serif.com/" style="fill-rule:evenodd;clip-rule:evenodd;stroke-linejoin:round;stroke-miterlimit:2;">
    <g transform="matrix(1,0,0,1,19.3631,9.5709)">
        <path d="M0,37.969L-18.125,37.969C-18.849,37.969 -19.417,37.353 -19.359,36.633L-16.485,1.138C-16.433,0.495 -15.896,0 -15.252,0L15.252,0C15.896,0 16.433,0.495 16.485,1.138L19.358,36.633C19.417,37.353 18.848,37.969 18.126,37.969L0,37.969Z" style="fill:rgb(141,222,241);fill-rule:nonzero;"/>
    </g>
    <g transform="matrix(1,0,0,1,44.948,17.7903)">
        <path d="M0,15.816L-1.875,15.816L-1.875,7.25C-1.875,4.287 -4.286,1.875 -7.25,1.875C-10.214,1.875 -12.625,4.287 -12.625,7.25L-12.625,15.816L-14.5,15.816L-14.5,7.25C-14.5,3.253 -11.248,0 -7.25,0C-3.253,0 0,3.253 0,7.25L0,15.816Z" style="fill:rgb(85,109,211);fill-rule:nonzero;"/>
    </g>
    <g transform="matrix(-1,0,0,1,11.157,17.9581)">
        <path d="M-0.001,-5.262C1.452,-5.262 2.63,-4.083 2.63,-2.631C2.63,-1.178 1.452,0 -0.001,0C-1.454,0 -2.631,-1.178 -2.631,-2.631C-2.631,-4.083 -1.454,-5.262 -0.001,-5.262" style="fill:rgb(118,154,255);fill-rule:nonzero;"/>
    </g>
    <g transform="matrix(-1,0,0,1,27.5681,17.9581)">
        <path d="M0,-5.262C1.453,-5.262 2.631,-4.083 2.631,-2.631C2.631,-1.178 1.453,0 0,0C-1.453,0 -2.631,-1.178 -2.631,-2.631C-2.631,-4.083 -1.453,-5.262 0,-5.262" style="fill:rgb(118,154,255);fill-rule:nonzero;"/>
    </g>
    <g transform="matrix(0,-1,-1,0,37.6988,26.9351)">
        <path d="M-10.303,-10.302C-15.992,-10.302 -20.605,-5.689 -20.605,0.001C-20.605,5.691 -15.992,10.303 -10.303,10.303C-4.613,10.303 0,5.691 0,0.001C0,-5.689 -4.613,-10.302 -10.303,-10.302" style="fill:rgb(118,154,255);fill-rule:nonzero;"/>
    </g>
    <g transform="matrix(1,0,0,1,40.1643,39.9814)">
        <path d="M0,-4.878C0,-6.24 -1.104,-7.345 -2.467,-7.345C-3.829,-7.345 -4.933,-6.24 -4.933,-4.878C-4.933,-4.083 -4.55,-3.384 -3.966,-2.933L-4.933,2.467L0,2.467L-0.967,-2.933C-0.383,-3.383 0,-4.083 0,-4.878" style="fill:rgb(248,181,91);fill-rule:nonzero;"/>
    </g>
    <g transform="matrix(1,0,0,1,28.5056,0)">
        <path d="M0,15.328L-1.875,15.328L-1.875,9.142C-1.875,5.135 -5.135,1.875 -9.143,1.875C-13.15,1.875 -16.41,5.135 -16.41,9.142L-16.41,15.328L-18.285,15.328L-18.285,9.142C-18.285,4.1 -14.184,0 -9.143,0C-4.102,0 0,4.1 0,9.142L0,15.328Z" style="fill:rgb(85,109,211);fill-rule:nonzero;"/>
    </g>
</svg>
